<?xml version="1.0" encoding="utf-8"?>
<svg xmlns="http://www.w3.org/2000/svg" xmlns:xlink="http://www.w3.org/1999/xlink" width="25px" height="24px" viewBox="0 0 25 24" version="1.1">
    <title>498425</title>
    <g id="Final" stroke="none" stroke-width="1" fill="none" fill-rule="evenodd">
        <g id="498425" transform="translate(0.126000, 0.000400)" fill="#D8D8D8" fill-rule="nonzero">
            <path d="M20,0 C22.209139,-4.05812251e-16 24,1.790861 24,4 L24,20 C24,22.209139 22.209139,24 20,24 L4,24 C1.790861,24 2.705415e-16,22.209139 0,20 L0,4 C-2.705415e-16,1.790861 1.790861,4.05812251e-16 4,0 L20,0 Z M16.086524,3.56090998 L8.0347003,3.56090998 L7.05058851,3.86508999 C5.20648027,4.28033572 3.83621938,5.83089409 3.65092961,7.71207243 C3.5766548,8.15531942 3.54668549,8.6048591 3.5614649,9.05404305 L3.5614649,9.05404305 L3.5614649,15.3165726 C3.48110329,16.8378158 4.1085879,18.3107534 5.26129435,19.3066986 C6.19669279,20.0565495 7.37404591,20.4383938 8.57148855,20.3802751 L8.57148855,20.3802751 L15.2813416,20.3802751 C16.814871,20.4719528 18.3034715,19.8434326 19.3072535,18.6804456 C19.8845006,17.8565974 20.2529276,16.9048278 20.38083,15.9070397 L20.38083,15.9070397 L20.38083,8.03414538 C20.3344359,7.57927569 20.2445605,7.12989834 20.1124359,6.69217476 C19.6309978,5.14285066 18.3142832,3.99938797 16.712777,3.7398394 C16.6680446,3.71747322 16.6177207,3.70069859 16.564601,3.68671973 L16.564601,3.68671973 L16.2346999,3.61402965 L16.086524,3.56090998 Z M8.57148855,5.26073943 C10.897571,5.17127472 13.2236534,5.17127472 15.5497358,5.26073943 C16.4412009,5.21385829 17.3106766,5.54752866 17.9419086,6.17876075 C18.5731407,6.80999284 18.9068111,7.6794685 18.85993,8.57093363 C18.9493947,10.897016 18.9493947,13.2230984 18.85993,15.5491808 C18.7704653,17.6068691 17.6074241,18.859375 15.5497358,18.859375 C13.2236534,18.9488397 10.897571,18.9488397 8.57148855,18.859375 C7.67211255,18.9365873 6.78453826,18.6127195 6.14624408,17.9744253 C5.5079499,17.3361311 5.18408209,16.4485568 5.26129435,15.5491808 L5.26129435,15.5491808 L5.26129435,8.57093363 C5.18408209,7.67155763 5.5079499,6.78398334 6.14624408,6.14568916 C6.78453826,5.50739498 7.67211255,5.18352717 8.57148855,5.26073943 Z M12.096398,7.71207243 C9.67734994,7.71699421 7.71754913,9.67679502 7.71262735,12.0958431 C7.76018805,14.4969566 9.69528453,16.4320531 12.096398,16.4796138 C14.5154461,16.474692 16.4752469,14.5148912 16.4801687,12.0958431 C16.432608,9.69472961 14.4975116,7.75963313 12.096398,7.71207243 Z M12.096398,9.32243717 C13.5786979,9.32243717 14.7803393,10.5240786 14.7803393,12.0063784 C14.7984173,13.117958 14.1403161,14.1293654 13.1167078,14.5631419 C12.0930995,14.9969184 10.9086723,14.766323 10.1225629,13.9802136 C9.33645349,13.1941042 9.10585803,12.0096769 9.53963454,10.9860686 C9.97341105,9.96246038 10.9848185,9.30435914 12.096398,9.32243717 Z M16.5696334,6.45956652 C16.2819245,6.44946202 16.0029457,6.55932251 15.7993793,6.76288891 C15.5958129,6.9664553 15.4859524,7.24543404 15.4960569,7.53314301 C15.4960569,8.12606294 15.9767135,8.60671951 16.5696334,8.60671951 C17.1625534,8.60671951 17.6432099,8.12606294 17.6432099,7.53314301 C17.6042476,6.95713285 17.1456436,6.49852887 16.5696334,6.45956652 Z" id="Combined-Shape"/>
        </g>
    </g>
</svg>