<?xml version="1.0" encoding="utf-8"?>
<svg xmlns="http://www.w3.org/2000/svg" xmlns:xlink="http://www.w3.org/1999/xlink" width="25" height="24" viewBox="0 0 25 24">
    <defs>
        <path id="a" d="M0 0h24v24H0z"/>
    </defs>
    <g fill="none" fill-rule="evenodd">
        <path d="M.541 0h24v24h-24z"/>
        <g transform="translate(.541)">
            <mask id="b" fill="#fff">
                <use xlink:href="#a"/>
            </mask>
            <path d="M18.51 9.417c.197 4.362-3.055 9.225-8.815 9.225a8.78 8.78 0 0 1-4.754-1.393 6.24 6.24 0 0 0 4.592-1.284 3.103 3.103 0 0 1-2.897-2.154c.487.093.965.065 1.4-.053-1.491-.299-2.52-1.643-2.487-3.08a3.09 3.09 0 0 0 1.404.389 3.107 3.107 0 0 1-.96-4.141 8.805 8.805 0 0 0 6.392 3.24 3.105 3.105 0 0 1 5.285-2.827 6.205 6.205 0 0 0 1.971-.753 3.116 3.116 0 0 1-1.363 1.716 6.207 6.207 0 0 0 1.78-.488 6.29 6.29 0 0 1-1.548 1.603M19 0H5a5 5 0 0 0-5 5v14a5 5 0 0 0 5 5h14a5 5 0 0 0 5-5V5a5 5 0 0 0-5-5" fill="#D8D8D8" mask="url(#b)"/>
        </g>
    </g>
</svg>