<?xml version="1.0" encoding="utf-8"?>
<svg xmlns="http://www.w3.org/2000/svg" xmlns:xlink="http://www.w3.org/1999/xlink" width="25px" height="24px" viewBox="0 0 25 24" version="1.1">
    <title>Shape</title>
    <g id="Final" stroke="none" stroke-width="1" fill="none" fill-rule="evenodd">
        <path d="M10.5835,15.0004 L15.0835,12.0004 L10.5835,9.0004 L10.5835,15.0004 Z M19.5835,0.0004 L4.5835,0.0004 C2.09821863,0.0004 0.0835,2.01511863 0.0835,4.5004 L0.0835,19.5004 C0.0835,21.9856814 2.09821863,24.0004 4.5835,24.0004 L19.5835,24.0004 C22.0687814,24.0004 24.0835,21.9856814 24.0835,19.5004 L24.0835,4.5004 C24.0835,2.01511863 22.0687814,0.0004 19.5835,0.0004 Z M19.456,14.6869 C19.375,15.6859 18.6175,16.9609 17.5555,17.1454 C14.161,17.4079 10.132,17.3764 6.613,17.1454 C5.515,17.0074 4.7935,15.6844 4.7125,14.6869 C4.5415,12.5899 4.5415,11.3959 4.7125,9.2989 C4.7935,8.3014 5.533,6.9859 6.613,6.8659 C10.0915,6.5734 14.14,6.6364 17.5555,6.8659 C18.7795,6.9109 19.375,8.1694 19.456,9.1684 C19.6255,11.2654 19.6255,12.5899 19.456,14.6869 Z" id="Shape" fill="#D8D8D8" fill-rule="nonzero"/>
    </g>
</svg>